<mxfile host="app.diagrams.net" modified="2023-07-13T07:33:46.670Z" agent="Mozilla/5.0 (Windows NT 10.0; Win64; x64) AppleWebKit/537.36 (KHTML, like Gecko) Chrome/114.0.0.0 Safari/537.36" etag="fBiZAhs9_e2K4BpBplJF" version="21.6.2" type="device">
  <diagram name="Pagina-1" id="5JXVkZ-9sPwiygzrxXfO">
    <mxGraphModel dx="1050" dy="619" grid="1" gridSize="10" guides="1" tooltips="1" connect="1" arrows="1" fold="1" page="1" pageScale="1" pageWidth="827" pageHeight="1169" math="0" shadow="0">
      <root>
        <mxCell id="0" />
        <mxCell id="1" parent="0" />
        <mxCell id="OITT_-eykMnc_-5-3sGQ-2" value="Utente WEB" style="shape=umlActor;verticalLabelPosition=bottom;verticalAlign=top;html=1;outlineConnect=0;" parent="1" vertex="1">
          <mxGeometry x="80" y="112.5" width="30" height="60" as="geometry" />
        </mxCell>
        <mxCell id="OITT_-eykMnc_-5-3sGQ-3" value="Redazione" style="shape=umlActor;verticalLabelPosition=bottom;verticalAlign=top;html=1;outlineConnect=0;" parent="1" vertex="1">
          <mxGeometry x="80" y="340" width="30" height="60" as="geometry" />
        </mxCell>
        <mxCell id="OITT_-eykMnc_-5-3sGQ-4" value="Utente registrato" style="shape=umlActor;verticalLabelPosition=bottom;verticalAlign=top;html=1;outlineConnect=0;" parent="1" vertex="1">
          <mxGeometry x="710" y="190" width="30" height="60" as="geometry" />
        </mxCell>
        <mxCell id="OITT_-eykMnc_-5-3sGQ-24" style="edgeStyle=orthogonalEdgeStyle;rounded=0;orthogonalLoop=1;jettySize=auto;html=1;exitX=0.5;exitY=0;exitDx=0;exitDy=0;exitPerimeter=0;endArrow=block;endFill=0;" parent="1" source="OITT_-eykMnc_-5-3sGQ-5" edge="1">
          <mxGeometry relative="1" as="geometry">
            <mxPoint x="725" y="290" as="targetPoint" />
          </mxGeometry>
        </mxCell>
        <mxCell id="OITT_-eykMnc_-5-3sGQ-5" value="Utente registrato privato" style="shape=umlActor;verticalLabelPosition=bottom;verticalAlign=top;html=1;outlineConnect=0;" parent="1" vertex="1">
          <mxGeometry x="710" y="460" width="30" height="60" as="geometry" />
        </mxCell>
        <mxCell id="OITT_-eykMnc_-5-3sGQ-6" value="Registrazione" style="ellipse;whiteSpace=wrap;html=1;" parent="1" vertex="1">
          <mxGeometry x="210" y="127.5" width="120" height="60" as="geometry" />
        </mxCell>
        <mxCell id="OITT_-eykMnc_-5-3sGQ-11" value="" style="endArrow=none;startArrow=none;endFill=0;startFill=0;html=1;rounded=0;entryX=0;entryY=0.5;entryDx=0;entryDy=0;" parent="1" target="OITT_-eykMnc_-5-3sGQ-6" edge="1">
          <mxGeometry width="160" relative="1" as="geometry">
            <mxPoint x="110" y="137.5" as="sourcePoint" />
            <mxPoint x="270" y="197.5" as="targetPoint" />
          </mxGeometry>
        </mxCell>
        <mxCell id="OITT_-eykMnc_-5-3sGQ-12" value="Popolarità" style="ellipse;whiteSpace=wrap;html=1;" parent="1" vertex="1">
          <mxGeometry x="490" y="120" width="120" height="60" as="geometry" />
        </mxCell>
        <mxCell id="OITT_-eykMnc_-5-3sGQ-13" value="Pubblicazione" style="ellipse;whiteSpace=wrap;html=1;" parent="1" vertex="1">
          <mxGeometry x="490" y="200" width="120" height="60" as="geometry" />
        </mxCell>
        <mxCell id="OITT_-eykMnc_-5-3sGQ-14" value="NavigazioneCategorie" style="ellipse;whiteSpace=wrap;html=1;" parent="1" vertex="1">
          <mxGeometry x="485" y="290" width="130" height="70" as="geometry" />
        </mxCell>
        <mxCell id="OITT_-eykMnc_-5-3sGQ-15" value="" style="endArrow=none;startArrow=none;endFill=0;startFill=0;html=1;rounded=0;" parent="1" edge="1">
          <mxGeometry width="160" relative="1" as="geometry">
            <mxPoint x="610" y="150" as="sourcePoint" />
            <mxPoint x="680" y="210" as="targetPoint" />
          </mxGeometry>
        </mxCell>
        <mxCell id="OITT_-eykMnc_-5-3sGQ-16" value="" style="endArrow=none;startArrow=none;endFill=0;startFill=0;html=1;rounded=0;exitX=1;exitY=0.5;exitDx=0;exitDy=0;" parent="1" source="OITT_-eykMnc_-5-3sGQ-13" edge="1">
          <mxGeometry width="160" relative="1" as="geometry">
            <mxPoint x="610" y="200" as="sourcePoint" />
            <mxPoint x="680" y="230" as="targetPoint" />
          </mxGeometry>
        </mxCell>
        <mxCell id="OITT_-eykMnc_-5-3sGQ-17" value="" style="endArrow=none;startArrow=none;endFill=0;startFill=0;html=1;rounded=0;exitX=0.985;exitY=0.376;exitDx=0;exitDy=0;exitPerimeter=0;" parent="1" source="OITT_-eykMnc_-5-3sGQ-14" edge="1">
          <mxGeometry width="160" relative="1" as="geometry">
            <mxPoint x="620" y="310" as="sourcePoint" />
            <mxPoint x="680" y="250" as="targetPoint" />
          </mxGeometry>
        </mxCell>
        <mxCell id="OITT_-eykMnc_-5-3sGQ-18" value="Acquisto CS" style="ellipse;whiteSpace=wrap;html=1;" parent="1" vertex="1">
          <mxGeometry x="490" y="420" width="120" height="60" as="geometry" />
        </mxCell>
        <mxCell id="OITT_-eykMnc_-5-3sGQ-19" value="GestioneBid" style="ellipse;whiteSpace=wrap;html=1;" parent="1" vertex="1">
          <mxGeometry x="490" y="510" width="120" height="60" as="geometry" />
        </mxCell>
        <mxCell id="OITT_-eykMnc_-5-3sGQ-20" value="" style="endArrow=none;startArrow=none;endFill=0;startFill=0;html=1;rounded=0;exitX=1;exitY=0.5;exitDx=0;exitDy=0;" parent="1" source="OITT_-eykMnc_-5-3sGQ-18" edge="1">
          <mxGeometry width="160" relative="1" as="geometry">
            <mxPoint x="610" y="456" as="sourcePoint" />
            <mxPoint x="680" y="480" as="targetPoint" />
          </mxGeometry>
        </mxCell>
        <mxCell id="OITT_-eykMnc_-5-3sGQ-21" value="" style="endArrow=none;startArrow=none;endFill=0;startFill=0;html=1;rounded=0;exitX=1;exitY=0.5;exitDx=0;exitDy=0;" parent="1" edge="1">
          <mxGeometry width="160" relative="1" as="geometry">
            <mxPoint x="610" y="535" as="sourcePoint" />
            <mxPoint x="680" y="510" as="targetPoint" />
          </mxGeometry>
        </mxCell>
        <mxCell id="OITT_-eykMnc_-5-3sGQ-23" value="" style="endArrow=none;startArrow=none;endFill=0;startFill=0;html=1;rounded=0;entryX=0;entryY=0.5;entryDx=0;entryDy=0;" parent="1" target="OITT_-eykMnc_-5-3sGQ-12" edge="1">
          <mxGeometry width="160" relative="1" as="geometry">
            <mxPoint x="120" y="370" as="sourcePoint" />
            <mxPoint x="310" y="310.5" as="targetPoint" />
          </mxGeometry>
        </mxCell>
        <mxCell id="DimEPqMxu2lIsvadfAvE-1" value="Affidibilità" style="ellipse;whiteSpace=wrap;html=1;" vertex="1" parent="1">
          <mxGeometry x="670" y="62.5" width="130" height="50" as="geometry" />
        </mxCell>
        <mxCell id="DimEPqMxu2lIsvadfAvE-2" value="" style="endArrow=none;startArrow=none;endFill=0;startFill=0;html=1;rounded=0;exitX=0.554;exitY=0.986;exitDx=0;exitDy=0;exitPerimeter=0;" edge="1" parent="1" source="DimEPqMxu2lIsvadfAvE-1">
          <mxGeometry width="160" relative="1" as="geometry">
            <mxPoint x="757" y="130" as="sourcePoint" />
            <mxPoint x="730" y="170" as="targetPoint" />
          </mxGeometry>
        </mxCell>
        <mxCell id="DimEPqMxu2lIsvadfAvE-3" value="Feedback" style="ellipse;whiteSpace=wrap;html=1;" vertex="1" parent="1">
          <mxGeometry x="294" y="480" width="120" height="50" as="geometry" />
        </mxCell>
        <mxCell id="DimEPqMxu2lIsvadfAvE-4" value="" style="endArrow=block;dashed=1;endFill=0;endSize=12;html=1;rounded=0;exitX=1;exitY=0;exitDx=0;exitDy=0;entryX=-0.013;entryY=0.65;entryDx=0;entryDy=0;entryPerimeter=0;" edge="1" parent="1" source="DimEPqMxu2lIsvadfAvE-3" target="OITT_-eykMnc_-5-3sGQ-18">
          <mxGeometry width="160" relative="1" as="geometry">
            <mxPoint x="450" y="430" as="sourcePoint" />
            <mxPoint x="610" y="430" as="targetPoint" />
          </mxGeometry>
        </mxCell>
        <mxCell id="DimEPqMxu2lIsvadfAvE-5" value="" style="endArrow=block;dashed=1;endFill=0;endSize=12;html=1;rounded=0;exitX=1;exitY=0.684;exitDx=0;exitDy=0;entryX=0;entryY=0.333;entryDx=0;entryDy=0;entryPerimeter=0;exitPerimeter=0;" edge="1" parent="1" source="DimEPqMxu2lIsvadfAvE-3" target="OITT_-eykMnc_-5-3sGQ-19">
          <mxGeometry width="160" relative="1" as="geometry">
            <mxPoint x="422" y="507" as="sourcePoint" />
            <mxPoint x="498" y="469" as="targetPoint" />
          </mxGeometry>
        </mxCell>
        <mxCell id="DimEPqMxu2lIsvadfAvE-6" value="" style="endArrow=none;startArrow=none;endFill=0;startFill=0;html=1;rounded=0;edgeStyle=orthogonalEdgeStyle;exitX=0.5;exitY=1;exitDx=0;exitDy=0;" edge="1" parent="1" source="DimEPqMxu2lIsvadfAvE-3">
          <mxGeometry width="160" relative="1" as="geometry">
            <mxPoint x="360" y="670" as="sourcePoint" />
            <mxPoint x="720" y="550" as="targetPoint" />
            <Array as="points">
              <mxPoint x="354" y="640" />
              <mxPoint x="721" y="640" />
            </Array>
          </mxGeometry>
        </mxCell>
        <mxCell id="DimEPqMxu2lIsvadfAvE-7" value="&amp;lt;&amp;lt;include&amp;gt;&amp;gt;" style="text;html=1;align=center;verticalAlign=middle;resizable=0;points=[];autosize=1;strokeColor=none;fillColor=none;" vertex="1" parent="1">
          <mxGeometry x="360" y="435" width="90" height="30" as="geometry" />
        </mxCell>
        <mxCell id="DimEPqMxu2lIsvadfAvE-8" value="&amp;lt;&amp;lt;include&amp;gt;&amp;gt;" style="text;html=1;align=center;verticalAlign=middle;resizable=0;points=[];autosize=1;strokeColor=none;fillColor=none;" vertex="1" parent="1">
          <mxGeometry x="430" y="490" width="90" height="30" as="geometry" />
        </mxCell>
      </root>
    </mxGraphModel>
  </diagram>
</mxfile>
